<mxfile host="app.diagrams.net" modified="2021-01-12T16:19:23.627Z" agent="5.0 (Windows NT 10.0; Win64; x64) AppleWebKit/537.36 (KHTML, like Gecko) Chrome/87.0.4280.141 Safari/537.36" etag="vDPoW4LZBcYpoPGpSOER" version="14.1.9" type="github">
  <diagram id="Dsd_q3NShloHZUIEmD8v" name="Page-1">
    <mxGraphModel dx="2062" dy="1122" grid="1" gridSize="10" guides="1" tooltips="1" connect="1" arrows="1" fold="1" page="1" pageScale="1" pageWidth="850" pageHeight="1100" math="0" shadow="0">
      <root>
        <mxCell id="0" />
        <mxCell id="1" parent="0" />
        <mxCell id="9V02hcsxAUx-ZT7_dg2K-2" value="" style="rounded=0;whiteSpace=wrap;html=1;" vertex="1" parent="1">
          <mxGeometry x="40" y="40" width="770" height="1040" as="geometry" />
        </mxCell>
        <mxCell id="9V02hcsxAUx-ZT7_dg2K-5" value="" style="rounded=0;whiteSpace=wrap;html=1;" vertex="1" parent="1">
          <mxGeometry x="40" y="40" width="770" height="130" as="geometry" />
        </mxCell>
        <mxCell id="9V02hcsxAUx-ZT7_dg2K-6" value="" style="verticalLabelPosition=bottom;shadow=0;dashed=0;align=center;html=1;verticalAlign=top;strokeWidth=1;shape=mxgraph.mockup.misc.map;" vertex="1" parent="1">
          <mxGeometry x="65" y="600" width="305" height="270" as="geometry" />
        </mxCell>
        <mxCell id="9V02hcsxAUx-ZT7_dg2K-7" value="" style="rounded=0;whiteSpace=wrap;html=1;" vertex="1" parent="1">
          <mxGeometry x="65" y="200" width="720" height="360" as="geometry" />
        </mxCell>
        <mxCell id="9V02hcsxAUx-ZT7_dg2K-9" value="Salad            X 2&#xa;" style="label;fontStyle=0;strokeColor=none;fillColor=none;align=left;verticalAlign=top;overflow=hidden;spacingLeft=28;spacingRight=4;rotatable=0;points=[[0,0.5],[1,0.5]];portConstraint=eastwest;imageWidth=16;imageHeight=16;image=img/clipart/Gear_128x128.png;fontSize=24;" vertex="1" parent="1">
          <mxGeometry x="90" y="220" width="220" height="50" as="geometry" />
        </mxCell>
        <mxCell id="9V02hcsxAUx-ZT7_dg2K-13" value="$ 20" style="text;strokeColor=none;fillColor=none;align=left;verticalAlign=top;spacingLeft=4;spacingRight=4;overflow=hidden;rotatable=0;points=[[0,0.5],[1,0.5]];portConstraint=eastwest;fontSize=24;" vertex="1" parent="1">
          <mxGeometry x="470" y="220" width="190" height="60" as="geometry" />
        </mxCell>
        <mxCell id="9V02hcsxAUx-ZT7_dg2K-14" value="Cheesecake X 2&#xa;" style="label;fontStyle=0;strokeColor=none;fillColor=none;align=left;verticalAlign=top;overflow=hidden;spacingLeft=28;spacingRight=4;rotatable=0;points=[[0,0.5],[1,0.5]];portConstraint=eastwest;imageWidth=16;imageHeight=16;image=img/clipart/Gear_128x128.png;fontSize=24;" vertex="1" parent="1">
          <mxGeometry x="90" y="280" width="250" height="50" as="geometry" />
        </mxCell>
        <mxCell id="9V02hcsxAUx-ZT7_dg2K-15" value="Chicken        X 2&#xa;" style="label;fontStyle=0;strokeColor=none;fillColor=none;align=left;verticalAlign=top;overflow=hidden;spacingLeft=28;spacingRight=4;rotatable=0;points=[[0,0.5],[1,0.5]];portConstraint=eastwest;imageWidth=16;imageHeight=16;image=img/clipart/Gear_128x128.png;fontSize=24;" vertex="1" parent="1">
          <mxGeometry x="90" y="340" width="220" height="50" as="geometry" />
        </mxCell>
        <mxCell id="9V02hcsxAUx-ZT7_dg2K-16" value="Pasta            X 2&#xa;" style="label;fontStyle=0;strokeColor=none;fillColor=none;align=left;verticalAlign=top;overflow=hidden;spacingLeft=28;spacingRight=4;rotatable=0;points=[[0,0.5],[1,0.5]];portConstraint=eastwest;imageWidth=16;imageHeight=16;image=img/clipart/Gear_128x128.png;fontSize=24;" vertex="1" parent="1">
          <mxGeometry x="90" y="400" width="220" height="50" as="geometry" />
        </mxCell>
        <mxCell id="9V02hcsxAUx-ZT7_dg2K-17" value="$ 30" style="text;strokeColor=none;fillColor=none;align=left;verticalAlign=top;spacingLeft=4;spacingRight=4;overflow=hidden;rotatable=0;points=[[0,0.5],[1,0.5]];portConstraint=eastwest;fontSize=24;" vertex="1" parent="1">
          <mxGeometry x="470" y="275" width="190" height="60" as="geometry" />
        </mxCell>
        <mxCell id="9V02hcsxAUx-ZT7_dg2K-18" value="$ 30" style="text;strokeColor=none;fillColor=none;align=left;verticalAlign=top;spacingLeft=4;spacingRight=4;overflow=hidden;rotatable=0;points=[[0,0.5],[1,0.5]];portConstraint=eastwest;fontSize=24;" vertex="1" parent="1">
          <mxGeometry x="470" y="340" width="190" height="60" as="geometry" />
        </mxCell>
        <mxCell id="9V02hcsxAUx-ZT7_dg2K-19" value="$ 25" style="text;strokeColor=none;fillColor=none;align=left;verticalAlign=top;spacingLeft=4;spacingRight=4;overflow=hidden;rotatable=0;points=[[0,0.5],[1,0.5]];portConstraint=eastwest;fontSize=24;" vertex="1" parent="1">
          <mxGeometry x="470" y="400" width="190" height="60" as="geometry" />
        </mxCell>
        <mxCell id="9V02hcsxAUx-ZT7_dg2K-20" value="" style="verticalLabelPosition=bottom;html=1;verticalAlign=top;align=center;strokeColor=none;fillColor=#00BEF2;shape=mxgraph.azure.user;fontSize=24;" vertex="1" parent="1">
          <mxGeometry x="115" y="70" width="47.5" height="50" as="geometry" />
        </mxCell>
        <mxCell id="9V02hcsxAUx-ZT7_dg2K-21" value="Name" style="text;html=1;strokeColor=none;fillColor=none;align=center;verticalAlign=middle;whiteSpace=wrap;rounded=0;fontSize=24;" vertex="1" parent="1">
          <mxGeometry x="195" y="70" width="40" height="20" as="geometry" />
        </mxCell>
        <mxCell id="9V02hcsxAUx-ZT7_dg2K-22" value="" style="verticalLabelPosition=bottom;shadow=0;dashed=0;align=center;html=1;verticalAlign=top;strokeWidth=1;shape=mxgraph.mockup.misc.shoppingCart;strokeColor=#999999;fontSize=24;" vertex="1" parent="1">
          <mxGeometry x="730" y="55" width="50" height="50" as="geometry" />
        </mxCell>
        <mxCell id="9V02hcsxAUx-ZT7_dg2K-24" value="" style="edgeStyle=orthogonalEdgeStyle;rounded=0;orthogonalLoop=1;jettySize=auto;html=1;fontSize=24;" edge="1" parent="1" source="9V02hcsxAUx-ZT7_dg2K-23" target="9V02hcsxAUx-ZT7_dg2K-7">
          <mxGeometry relative="1" as="geometry" />
        </mxCell>
        <mxCell id="9V02hcsxAUx-ZT7_dg2K-23" value="$ 105" style="text;html=1;strokeColor=none;fillColor=none;align=center;verticalAlign=middle;whiteSpace=wrap;rounded=0;fontSize=24;" vertex="1" parent="1">
          <mxGeometry x="650" y="70" width="70" height="20" as="geometry" />
        </mxCell>
        <mxCell id="9V02hcsxAUx-ZT7_dg2K-25" value="&lt;font style=&quot;font-size: 18px&quot;&gt;505 Madeup Street&lt;/font&gt;" style="text;html=1;strokeColor=none;fillColor=none;align=center;verticalAlign=middle;whiteSpace=wrap;rounded=0;fontSize=24;" vertex="1" parent="1">
          <mxGeometry x="150" y="100" width="140" height="40" as="geometry" />
        </mxCell>
        <mxCell id="9V02hcsxAUx-ZT7_dg2K-27" value="" style="endArrow=none;html=1;fontSize=24;entryX=1.004;entryY=0.724;entryDx=0;entryDy=0;entryPerimeter=0;exitX=0.003;exitY=0.729;exitDx=0;exitDy=0;exitPerimeter=0;" edge="1" parent="1" source="9V02hcsxAUx-ZT7_dg2K-7" target="9V02hcsxAUx-ZT7_dg2K-7">
          <mxGeometry width="50" height="50" relative="1" as="geometry">
            <mxPoint x="110" y="560" as="sourcePoint" />
            <mxPoint x="160" y="510" as="targetPoint" />
            <Array as="points" />
          </mxGeometry>
        </mxCell>
        <mxCell id="9V02hcsxAUx-ZT7_dg2K-28" value="SubTotal:" style="text;html=1;strokeColor=none;fillColor=none;align=center;verticalAlign=middle;whiteSpace=wrap;rounded=0;fontSize=24;" vertex="1" parent="1">
          <mxGeometry x="80" y="490" width="110" height="30" as="geometry" />
        </mxCell>
        <mxCell id="9V02hcsxAUx-ZT7_dg2K-30" value="$ 105" style="text;html=1;strokeColor=none;fillColor=none;align=center;verticalAlign=middle;whiteSpace=wrap;rounded=0;fontSize=24;" vertex="1" parent="1">
          <mxGeometry x="450" y="490" width="110" height="30" as="geometry" />
        </mxCell>
        <mxCell id="9V02hcsxAUx-ZT7_dg2K-33" value="&lt;font style=&quot;font-size: 20px&quot;&gt;Service Fee:&lt;/font&gt;" style="text;html=1;strokeColor=none;fillColor=none;align=center;verticalAlign=middle;whiteSpace=wrap;rounded=0;fontSize=24;" vertex="1" parent="1">
          <mxGeometry x="390" y="610" width="130" height="30" as="geometry" />
        </mxCell>
        <mxCell id="9V02hcsxAUx-ZT7_dg2K-34" value="&lt;span style=&quot;font-size: 20px&quot;&gt;$ 2.99&lt;/span&gt;" style="text;html=1;strokeColor=none;fillColor=none;align=center;verticalAlign=middle;whiteSpace=wrap;rounded=0;fontSize=24;" vertex="1" parent="1">
          <mxGeometry x="580" y="610" width="130" height="30" as="geometry" />
        </mxCell>
        <mxCell id="9V02hcsxAUx-ZT7_dg2K-35" value="&lt;font style=&quot;font-size: 20px&quot;&gt;Delivery Fee:&lt;/font&gt;" style="text;html=1;strokeColor=none;fillColor=none;align=center;verticalAlign=middle;whiteSpace=wrap;rounded=0;fontSize=24;" vertex="1" parent="1">
          <mxGeometry x="390" y="670" width="130" height="30" as="geometry" />
        </mxCell>
        <mxCell id="9V02hcsxAUx-ZT7_dg2K-36" value="&lt;span style=&quot;font-size: 20px&quot;&gt;$ 4.99&lt;/span&gt;" style="text;html=1;strokeColor=none;fillColor=none;align=center;verticalAlign=middle;whiteSpace=wrap;rounded=0;fontSize=24;" vertex="1" parent="1">
          <mxGeometry x="580" y="670" width="130" height="30" as="geometry" />
        </mxCell>
        <mxCell id="9V02hcsxAUx-ZT7_dg2K-39" value="505 Madeup Street" style="fillColor=none;strokeColor=none;html=1;fontSize=11;fontStyle=0;align=left;fontColor=#596780;fontStyle=1;fontSize=11" vertex="1" parent="1">
          <mxGeometry x="65" y="880" width="240" height="20" as="geometry" />
        </mxCell>
        <mxCell id="9V02hcsxAUx-ZT7_dg2K-40" value="You are located 13km away from CheeseCake Factory." style="rounded=1;arcSize=9;align=left;spacingLeft=5;strokeColor=#4C9AFF;html=1;strokeWidth=2;fontSize=12" vertex="1" parent="1">
          <mxGeometry x="65" y="905" width="305" height="33" as="geometry" />
        </mxCell>
        <mxCell id="9V02hcsxAUx-ZT7_dg2K-41" value="" style="rounded=0;whiteSpace=wrap;html=1;fontSize=24;" vertex="1" parent="1">
          <mxGeometry x="40" y="960" width="770" height="120" as="geometry" />
        </mxCell>
        <mxCell id="9V02hcsxAUx-ZT7_dg2K-42" value="&lt;font style=&quot;font-size: 14px&quot;&gt;Note: Hermit charges delivery fee based on distance.&lt;/font&gt;" style="text;html=1;strokeColor=none;fillColor=none;align=center;verticalAlign=middle;whiteSpace=wrap;rounded=0;fontSize=24;" vertex="1" parent="1">
          <mxGeometry x="20" y="960" width="390" height="30" as="geometry" />
        </mxCell>
        <mxCell id="9V02hcsxAUx-ZT7_dg2K-43" value="&lt;span style=&quot;color: rgba(255 , 255 , 255 , 0.5) ; font-family: , &amp;#34;blinkmacsystemfont&amp;#34; , &amp;#34;segoe ui&amp;#34; , &amp;#34;roboto&amp;#34; , &amp;#34;helvetica neue&amp;#34; , &amp;#34;arial&amp;#34; , &amp;#34;noto sans&amp;#34; , sans-serif , &amp;#34;apple color emoji&amp;#34; , &amp;#34;segoe ui emoji&amp;#34; , &amp;#34;segoe ui symbol&amp;#34; , &amp;#34;noto color emoji&amp;#34; ; font-size: 12.8px ; background-color: rgb(52 , 58 , 64)&quot;&gt;Copyright © 2021 - The A Team&lt;/span&gt;" style="text;html=1;strokeColor=none;fillColor=none;align=center;verticalAlign=middle;whiteSpace=wrap;rounded=0;fontSize=24;" vertex="1" parent="1">
          <mxGeometry x="210" y="1005" width="390" height="30" as="geometry" />
        </mxCell>
        <mxCell id="9V02hcsxAUx-ZT7_dg2K-44" value="&lt;span style=&quot;font-size: 20px&quot;&gt;HST:&lt;/span&gt;" style="text;html=1;strokeColor=none;fillColor=none;align=center;verticalAlign=middle;whiteSpace=wrap;rounded=0;fontSize=24;" vertex="1" parent="1">
          <mxGeometry x="425" y="730" width="130" height="30" as="geometry" />
        </mxCell>
        <mxCell id="9V02hcsxAUx-ZT7_dg2K-45" value="&lt;span style=&quot;font-size: 20px&quot;&gt;$ 14.69&lt;/span&gt;" style="text;html=1;strokeColor=none;fillColor=none;align=center;verticalAlign=middle;whiteSpace=wrap;rounded=0;fontSize=24;" vertex="1" parent="1">
          <mxGeometry x="580" y="730" width="130" height="30" as="geometry" />
        </mxCell>
        <mxCell id="9V02hcsxAUx-ZT7_dg2K-46" value="&lt;span style=&quot;font-size: 20px&quot;&gt;&lt;b&gt;TOTAL:&lt;/b&gt;&lt;/span&gt;" style="text;html=1;strokeColor=none;fillColor=none;align=center;verticalAlign=middle;whiteSpace=wrap;rounded=0;fontSize=24;" vertex="1" parent="1">
          <mxGeometry x="422.5" y="830" width="130" height="30" as="geometry" />
        </mxCell>
        <mxCell id="9V02hcsxAUx-ZT7_dg2K-47" value="&lt;span style=&quot;font-size: 20px&quot;&gt;&lt;b&gt;$ 127.67&lt;/b&gt;&lt;/span&gt;" style="text;html=1;strokeColor=none;fillColor=none;align=center;verticalAlign=middle;whiteSpace=wrap;rounded=0;fontSize=24;" vertex="1" parent="1">
          <mxGeometry x="590" y="830" width="130" height="30" as="geometry" />
        </mxCell>
        <mxCell id="9V02hcsxAUx-ZT7_dg2K-52" value="Pay now" style="rounded=1;fillColor=#0057D8;align=center;strokeColor=none;html=1;fontColor=#ffffff;fontSize=12" vertex="1" parent="1">
          <mxGeometry x="555" y="900" width="155" height="40" as="geometry" />
        </mxCell>
      </root>
    </mxGraphModel>
  </diagram>
</mxfile>
